{"title":"Yumurta / Egg (Semih KaplanoÃ„Å¸lu 2007).avi","uid":5446863,"size":731912192,"categoryP":"video","categoryS":"movies","magnet":"?xt=urn:btih:1520ab70cda2f0903133ab9c16bc48f18130d616&amp;dn=Yumurta+%2F+Egg+%28Semih+Kaplano%C3%84%C5%B8lu+2007%29.avi&amp;tr=udp%3A%2F%2Ftracker.openbittorrent.com%3A80&amp;tr=udp%3A%2F%2Fopen.demonii.com%3A1337&amp;tr=udp%3A%2F%2Ftracker.coppersurfer.tk%3A6969&amp;tr=udp%3A%2F%2Fexodus.desync.com%3A6969","seeders":1,"leechers":0,"uploader":"wickfox","files":1,"time":1269047423,"description":"PLEASE SEED AFTER YOU DOWNLOAD!!!\nPLEASE SEED AFTER YOU DOWNLOAD!!!\nPLEASE SEED AFTER YOU DOWNLOAD!!!\nPLEASE SEED AFTER YOU DOWNLOAD!!!\n\n\nGeneral\n\nFormat                           : AVI\nFormat/Info                      : Audio Video Interleave\nFile size                        : 698 MiB\nDuration                         : 1h 32mn\nOverall bit rate                 : 1 049 Kbps\nWriting application              : VirtualDubMod 1.5.4.1 (build 2178/release)\nWriting library                  : VirtualDubMod build 2178/release\n\nVideo\n\nID                               : 0\nFormat                           : MPEG-4 Visual\nFormat profile                   : Advanced Simple@L5\nFormat settings, BVOP            : Yes\nFormat settings, QPel            : No\nFormat settings, GMC             : No warppoints\nFormat settings, Matrix          : Custom\nCodec ID                         : XVID\nCodec ID/Hint                    : XviD\nDuration                         : 1h 32mn\nBit rate                         : 928 Kbps\nWidth                            : 720 pixels\nHeight                           : 416 pixels\nDisplay aspect ratio             : 16:9\nFrame rate                       : 25.000 fps\nResolution                       : 8 bits\nColorimetry                      : 4:2:0\nScan type                        : Progressive\nBits/(Pixel*Frame)               : 0.124\nStream size                      : 618 MiB (88%)\nWriting library                  : XviD 1.2.0.dev47 (UTC 2006-11-01)\n\nAudio\n\nID                               : 1\nFormat                           : MPEG Audio\nFormat version                   : Version 1\nFormat profile                   : Layer 3\nMode                             : Joint stereo\nFormat_Settings_ModeExtension    : MS Stereo\nCodec ID                         : 55\nCodec ID/Hint                    : MP3\nDuration                         : 1h 32mn\nBit rate mode                    : Variable\nBit rate                         : 108 Kbps\nNominal bit rate                 : 128 Kbps\nChannel(s)                       : 2 channels\nSampling rate                    : 48.0 KHz\nStream size                      : 71.9 MiB (10%)\nAlignment                        : Aligned on interleaves\nInterleave, duration             : 24 ms (0.60 video frame)\nInterleave, preload duration     : 526 ms\nWriting library                  : LAME3.97 \nEncoding settings                : -m j -V 4 -q 2 -lowpass 17 --abr 128\n\n","torrent":{"xt":"urn:btih:1520ab70cda2f0903133ab9c16bc48f18130d616","amp;dn":"Yumurta+%2F+Egg+%28Semih+Kaplano%C3%84%C5%B8lu+2007%29.avi","amp;tr":["udp%3A%2F%2Ftracker.openbittorrent.com%3A80","udp%3A%2F%2Fopen.demonii.com%3A1337","udp%3A%2F%2Ftracker.coppersurfer.tk%3A6969","udp%3A%2F%2Fexodus.desync.com%3A6969"],"infoHash":"1520ab70cda2f0903133ab9c16bc48f18130d616","infoHashBuffer":{"type":"Buffer","data":[21,32,171,112,205,162,240,144,49,51,171,156,22,188,72,241,129,48,214,22]},"announce":[],"urlList":[]}}